<?xml version="1.0" standalone="no"?>
<!DOCTYPE svg PUBLIC "-//W3C//DTD SVG 20010904//EN"
 "http://www.w3.org/TR/2001/REC-SVG-20010904/DTD/svg10.dtd">
<svg version="1.0" xmlns="http://www.w3.org/2000/svg"
 width="200.000000pt" height="200.000000pt" viewBox="0 0 200.000000 200.000000"
 preserveAspectRatio="xMidYMid meet">

<g transform="translate(0.000000,200.000000) scale(0.100000,-0.100000)"
fill="#000000" stroke="none">
<path d="M511 1819 c-60 -24 -151 -106 -151 -137 0 -22 18 -42 39 -42 8 0 37
22 66 49 97 92 220 94 309 5 105 -106 77 -275 -57 -347 -40 -21 -57 -22 -311
-27 -242 -4 -270 -7 -280 -22 -8 -13 -8 -23 0 -35 10 -16 35 -18 290 -18 l279
0 52 27 c113 60 168 147 168 268 0 85 -21 142 -74 203 -75 85 -222 119 -330
76z"/>
<path d="M1403 1659 c-47 -15 -77 -33 -121 -74 -84 -77 -104 -134 -52 -148 22
-6 23 -5 82 66 50 62 119 91 208 92 114 0 195 -49 248 -150 36 -68 38 -179 4
-242 -30 -57 -80 -105 -138 -134 l-49 -24 -724 -5 c-675 -5 -725 -6 -735 -22
-8 -13 -8 -23 0 -35 10 -17 57 -18 740 -18 l729 0 55 22 c177 72 266 261 210
444 -19 64 -29 81 -89 140 -58 58 -76 70 -135 88 -84 26 -152 26 -233 0z"/>
<path d="M132 748 c-15 -15 -15 -41 0 -56 9 -9 124 -12 458 -12 267 0 459 -4
481 -10 52 -15 99 -49 134 -99 26 -37 30 -51 30 -109 -1 -73 -15 -109 -61
-156 -47 -46 -83 -60 -154 -60 -76 0 -110 15 -166 74 -39 41 -61 49 -82 28
-20 -20 -14 -42 22 -84 112 -131 314 -137 436 -14 149 148 105 388 -89 479
l-56 26 -470 3 c-362 2 -473 0 -483 -10z"/>
</g>
</svg>
